# Blender v3.3.1 OBJ File: 'float (1).blend'
# www.blender.org
mtllib float.mtl
o 立方体_立方体.003
v -0.487247 1.659357 0.394306
v -0.487247 2.419474 0.394306
v -0.487247 1.659357 -0.394306
v -0.487247 2.419474 -0.394306
v 0.487247 1.659357 0.394306
v 0.487247 2.419474 0.394306
v 0.487247 1.659357 -0.394306
v 0.487247 2.419474 -0.394306
v -0.249200 0.426157 0.315059
v -0.431306 1.486996 0.315059
v -0.249200 0.426157 -0.315059
v -0.431306 1.486996 -0.315059
v 0.249200 0.426157 0.315059
v 0.431306 1.486996 0.315059
v 0.249200 0.426157 -0.315059
v 0.431306 1.486996 -0.315059
v 0.511231 1.140770 0.167439
v 0.570102 1.453041 0.167439
v 0.511231 1.140770 -0.167439
v 0.570102 1.453041 -0.167439
v 0.993064 0.334495 0.326850
v 1.415997 0.603581 0.326850
v 0.993064 0.334495 -0.326850
v 1.415997 0.603581 -0.326850
v -0.511231 1.140770 -0.167439
v -0.570102 1.453041 -0.167439
v -0.511231 1.140770 0.167439
v -0.570102 1.453041 0.167439
v -0.993064 0.334495 -0.326850
v -1.415997 0.603581 -0.326849
v -0.993064 0.334495 0.326850
v -1.415997 0.603581 0.326850
vt 0.111140 0.865827
vt 0.038579 0.778296
vt 0.111140 0.778296
vt 0.285075 0.664616
vt 0.174157 0.575445
vt 0.286362 0.577095
vt 0.388962 0.885508
vt 0.316401 0.797978
vt 0.388962 0.797978
vt 0.284502 0.849928
vt 0.173973 0.760276
vt 0.286169 0.762413
vt 0.285890 0.672414
vt 0.172252 0.742728
vt 0.173695 0.670182
vt 0.288347 0.881823
vt 0.176113 0.954357
vt 0.176130 0.881796
vt 0.038579 0.865827
vt 0.172870 0.662966
vt 0.316401 0.885508
vt 0.172306 0.847791
vt 0.284447 0.744961
vt 0.288330 0.954384
vt 0.766971 0.631969
vt 0.694988 0.703952
vt 0.694988 0.631969
vt 0.766971 0.703952
vt 0.694988 0.775935
vt 0.766971 0.775935
vt 0.694988 0.847918
vt 0.766971 0.847918
vt 0.694988 0.919901
vt 0.623005 0.847918
vt 0.623005 0.775935
vt 0.838954 0.775935
vt 0.766971 0.919901
vt 0.838954 0.847918
vt 0.779193 0.068413
vt 0.692066 0.155540
vt 0.692066 0.068413
vt 0.779193 0.242667
vt 0.692066 0.242667
vt 0.692066 0.329795
vt 0.779193 0.329795
vt 0.692066 0.416922
vt 0.604939 0.329795
vt 0.604939 0.242667
vt 0.866320 0.242667
vt 0.779193 0.155540
vt 0.779193 0.416922
vt 0.866320 0.329795
vt 0.270437 0.117638
vt 0.190095 0.197980
vt 0.190095 0.117638
vt 0.270437 0.278322
vt 0.190095 0.278322
vt 0.190095 0.358664
vt 0.270437 0.358664
vt 0.190095 0.439006
vt 0.109753 0.278322
vt 0.109753 0.358664
vt 0.350779 0.278322
vt 0.270437 0.197980
vt 0.270437 0.439006
vt 0.350779 0.358664
vn -1.0000 0.0000 0.0000
vn 0.0000 0.0000 -1.0000
vn 1.0000 0.0000 0.0000
vn 0.0000 0.0000 1.0000
vn 0.0000 -1.0000 0.0000
vn 0.0000 1.0000 0.0000
vn -0.9856 -0.1692 0.0000
vn 0.9856 -0.1692 0.0000
vn -0.9827 0.1853 0.0000
vn -0.0899 0.1412 -0.9859
vn 0.5368 -0.8437 0.0000
vn -0.0899 0.1412 0.9859
vn -0.8584 -0.5130 0.0000
vn 0.7086 0.7056 0.0000
vn -0.1564 0.0295 -0.9872
vn -0.1564 0.0295 0.9872
vn 0.9827 0.1853 0.0000
vn 0.0899 0.1412 0.9859
vn -0.5368 -0.8437 0.0000
vn 0.0899 0.1412 -0.9859
vn 0.8584 -0.5130 0.0000
vn -0.7086 0.7056 0.0000
vn 0.1564 0.0295 0.9872
vn 0.1564 0.0295 -0.9872
usemtl マテリアル
s off
f 2/1/1 3/2/1 1/3/1
f 4/4/2 7/5/2 3/6/2
f 8/7/3 5/8/3 7/9/3
f 6/10/4 1/11/4 5/12/4
f 7/13/5 1/14/5 3/15/5
f 4/16/6 6/17/6 8/18/6
f 2/1/1 4/19/1 3/2/1
f 4/4/2 8/20/2 7/5/2
f 8/7/3 6/21/3 5/8/3
f 6/10/4 2/22/4 1/11/4
f 7/13/5 5/23/5 1/14/5
f 4/16/6 2/24/6 6/17/6
usemtl マテリアル.002
f 10/25/7 11/26/7 9/27/7
f 12/28/2 15/29/2 11/26/2
f 16/30/8 13/31/8 15/29/8
f 14/32/4 9/33/4 13/31/4
f 15/29/5 9/34/5 11/35/5
f 12/36/6 14/32/6 16/30/6
f 10/25/7 12/28/7 11/26/7
f 12/28/2 16/30/2 15/29/2
f 16/30/8 14/32/8 13/31/8
f 14/32/4 10/37/4 9/33/4
f 15/29/5 13/31/5 9/34/5
f 12/36/6 10/38/6 14/32/6
usemtl マテリアル.001
f 18/39/9 19/40/9 17/41/9
f 19/40/10 24/42/10 23/43/10
f 24/42/11 21/44/11 23/43/11
f 22/45/12 17/46/12 21/44/12
f 23/43/13 17/47/13 19/48/13
f 20/49/14 22/45/14 24/42/14
f 18/39/9 20/50/9 19/40/9
f 19/40/15 20/50/15 24/42/15
f 24/42/11 22/45/11 21/44/11
f 22/45/16 18/51/16 17/46/16
f 23/43/13 21/44/13 17/47/13
f 20/49/14 18/52/14 22/45/14
usemtl マテリアル.003
f 26/53/17 27/54/17 25/55/17
f 27/54/18 32/56/18 31/57/18
f 32/56/19 29/58/19 31/57/19
f 30/59/20 25/60/20 29/58/20
f 27/61/21 29/58/21 25/62/21
f 28/63/22 30/59/22 32/56/22
f 26/53/17 28/64/17 27/54/17
f 27/54/23 28/64/23 32/56/23
f 32/56/19 30/59/19 29/58/19
f 30/59/24 26/65/24 25/60/24
f 27/61/21 31/57/21 29/58/21
f 28/63/22 26/66/22 30/59/22
