# Blender 3.5.0
# www.blender.org
mtllib needle_R_arm.mtl
o RArm
v 0.209286 -0.213829 -0.300845
v 0.209286 0.213829 -0.300845
v 0.209286 -0.213829 0.300845
v 0.209286 0.213829 0.300845
v -0.209286 -0.213829 -0.300845
v -0.209286 0.213829 -0.300845
v -0.209286 -0.213829 0.300845
v -0.209286 0.213829 0.300845
v 0.000000 -0.235886 0.300845
v 0.000000 0.235886 0.300845
v 0.000000 -0.235886 -0.300845
v 0.000000 0.235886 -0.300845
v 0.241342 0.000000 -0.300845
v 0.241342 0.000000 0.300845
v -0.241342 0.000000 0.300845
v -0.241342 0.000000 -0.300845
v 0.000000 0.000000 -1.130777
v 0.000000 0.000000 1.130777
v 0.109428 -0.063043 0.000000
v 0.109428 0.063043 0.000000
v -0.109428 -0.063043 0.000000
v -0.109428 0.063043 0.000000
v 0.000000 0.124106 0.000000
v 0.000000 -0.124106 0.000000
v -0.109428 0.000000 0.000000
v 0.109428 0.000000 0.000000
v 0.134024 -0.086959 -0.204143
v -0.134024 0.086959 -0.204143
v 0.000000 0.132943 -0.204143
v 0.000000 -0.132943 -0.204143
v -0.134024 0.000000 -0.204143
v 0.134024 0.086959 -0.204143
v -0.134024 -0.086959 -0.204143
v 0.134024 0.000000 -0.204143
v 0.134024 0.086959 0.204143
v -0.134024 -0.086959 0.204143
v 0.134024 0.000000 0.204143
v 0.134024 -0.086959 0.204143
v -0.134024 0.086959 0.204143
v 0.000000 0.132943 0.204143
v 0.000000 -0.132943 0.204143
v -0.134024 0.000000 0.204143
v 0.241342 0.138310 -0.300845
v 0.241342 0.138310 0.300845
v -0.241342 0.138310 0.300845
v -0.241342 0.138310 -0.300845
v 0.000000 0.138310 -0.439449
v 0.000000 0.138310 0.439449
v -0.109428 0.031337 0.000000
v 0.109428 0.031337 0.000000
v 0.134024 0.043479 -0.204143
v -0.134024 0.043479 -0.204143
v -0.134024 0.043479 0.204143
v 0.134024 0.043479 0.204143
v 0.241342 -0.138310 0.300845
v -0.241342 -0.138310 0.300845
v -0.241342 -0.138310 -0.300845
v 0.000000 -0.138310 -0.439449
v 0.000000 -0.138310 0.439449
v 0.241342 -0.138310 -0.300845
v 0.109428 -0.031337 0.000000
v -0.109428 -0.031337 0.000000
v 0.134024 -0.043479 -0.204143
v -0.134024 -0.043479 -0.204143
v -0.134024 -0.043479 0.204143
v 0.134024 -0.043479 0.204143
v -0.145646 0.235886 0.300845
v -0.145646 -0.235886 -0.300845
v -0.145646 -0.235886 0.300845
v -0.145646 0.235886 -0.300845
v -0.145646 0.000000 -0.422215
v -0.145646 0.000000 0.422215
v -0.060511 0.093575 0.000000
v -0.060511 -0.093575 0.000000
v -0.086240 0.109951 -0.204143
v -0.086240 -0.109951 -0.204143
v -0.086240 -0.109951 0.204143
v -0.086240 0.109951 0.204143
v -0.145646 0.138310 -0.428444
v -0.145646 0.138310 0.428444
v -0.145646 -0.138310 0.428444
v -0.145646 -0.138310 -0.428444
v 0.145646 -0.235886 0.300845
v 0.145646 0.235886 -0.300845
v 0.145646 0.235886 0.300845
v 0.145646 -0.235886 -0.300845
v 0.145646 0.000000 0.422215
v 0.145646 0.000000 -0.422215
v 0.060511 -0.093575 0.000000
v 0.060511 0.093575 0.000000
v 0.086240 -0.109951 -0.204143
v 0.086240 0.109951 -0.204143
v 0.086240 0.109951 0.204143
v 0.086240 -0.109951 0.204143
v 0.145646 0.138310 0.428444
v 0.145646 0.138310 -0.428444
v 0.145646 -0.138310 -0.428444
v 0.145646 -0.138310 0.428444
vn 0.6694 -0.0000 -0.7429
vn -0.7575 0.3215 0.5681
vn -0.6694 -0.0000 0.7429
vn 0.7575 0.3215 -0.5681
vn -0.2473 -0.5140 0.8213
vn 0.2473 0.5140 0.8213
vn -0.0000 0.6090 0.7931
vn -0.0000 -0.6090 0.7931
vn -0.0435 0.8169 -0.5751
vn 0.0435 0.8169 0.5751
vn 0.0753 0.0449 0.9962
vn -0.0753 0.0449 -0.9962
vn 0.7997 0.0270 -0.5998
vn -0.7997 0.0270 0.5998
vn 0.9928 -0.0000 0.1196
vn -0.9928 -0.0000 -0.1196
vn 0.2561 -0.9605 -0.1093
vn -0.2561 0.9605 -0.1093
vn 0.5247 0.8407 -0.1336
vn -0.5247 -0.8407 -0.1336
vn 0.6694 -0.0000 0.7429
vn -0.9928 -0.0000 0.1196
vn 0.2561 -0.9605 0.1093
vn -0.2561 0.9605 0.1093
vn 0.5247 0.8407 0.1336
vn -0.5247 -0.8407 0.1336
vn -0.6694 -0.0000 -0.7429
vn -0.2473 -0.5140 -0.8213
vn 0.2473 0.5140 -0.8213
vn -0.0000 0.6090 -0.7931
vn -0.0000 -0.6090 -0.7931
vn 0.9928 -0.0000 -0.1196
vn 0.6904 0.7094 0.1419
vn -0.6904 0.7094 -0.1419
vn 0.7853 -0.0000 -0.6192
vn -0.7853 -0.0000 0.6192
vn -0.5810 -0.2466 -0.7757
vn 0.5810 -0.2466 0.7757
vn 0.5810 -0.2466 -0.7757
vn -0.2654 -0.7659 0.5857
vn -0.5810 -0.2466 0.7757
vn 0.2654 -0.7659 -0.5857
vn -0.0000 -0.7944 -0.6075
vn -0.0000 -0.7944 0.6075
vn -0.2654 -0.7659 -0.5857
vn -0.6904 0.7094 0.1419
vn -0.7853 -0.0000 -0.6192
vn -0.1821 0.5254 -0.8311
vn -0.1796 -0.6735 -0.7170
vn -0.4501 -0.8921 0.0386
vn -0.4283 0.8901 0.1559
vn -0.4501 -0.8921 -0.0386
vn -0.4283 0.8901 -0.1559
vn -0.0753 0.0449 0.9962
vn -0.7997 0.0270 -0.5998
vn -0.7575 0.3215 -0.5681
vn -0.1821 0.5254 0.8311
vn -0.1796 -0.6735 0.7170
vn -0.0435 0.8169 0.5751
vn 0.2654 -0.7659 0.5857
vn 0.6904 0.7094 -0.1419
vn 0.7853 -0.0000 0.6192
vn 0.1821 -0.5254 -0.8311
vn 0.1796 0.6735 -0.7170
vn 0.4501 0.8921 0.0386
vn 0.4283 -0.8901 0.1559
vn 0.4501 0.8921 -0.0386
vn 0.4283 -0.8901 -0.1559
vn 0.0753 0.0449 -0.9962
vn 0.7997 0.0270 0.5998
vn 0.7575 0.3215 0.5681
vn 0.1821 -0.5254 0.8311
vn 0.1796 0.6735 0.7170
vn 0.0435 0.8169 -0.5751
vn 0.5810 0.2466 -0.7757
vn -0.2654 0.7659 0.5857
vn -0.5810 0.2466 0.7757
vn 0.2654 0.7659 -0.5857
vn -0.1821 -0.5254 0.8311
vn 0.1821 0.5254 0.8311
vn -0.1796 0.6735 0.7170
vn 0.1796 -0.6735 0.7170
vn -0.0000 0.7944 -0.6075
vn -0.0000 0.7944 0.6075
vn 0.6904 -0.7094 0.1419
vn -0.6904 -0.7094 -0.1419
vn 0.4501 -0.8921 -0.0386
vn -0.4501 0.8921 -0.0386
vn 0.4283 0.8901 -0.1559
vn -0.4283 -0.8901 -0.1559
vn 0.5810 0.2466 0.7757
vn 0.4501 -0.8921 0.0386
vn -0.4501 0.8921 0.0386
vn 0.4283 0.8901 0.1559
vn -0.4283 -0.8901 0.1559
vn -0.5810 0.2466 -0.7757
vn -0.1821 -0.5254 -0.8311
vn 0.1821 0.5254 -0.8311
vn -0.1796 0.6735 -0.7170
vn 0.1796 -0.6735 -0.7170
vn 0.0753 -0.0449 0.9962
vn -0.0753 -0.0449 -0.9962
vn 0.7997 -0.0270 -0.5998
vn -0.7997 -0.0270 0.5998
vn -0.7575 -0.3215 0.5681
vn 0.7575 -0.3215 -0.5681
vn -0.0435 -0.8169 -0.5751
vn 0.0435 -0.8169 0.5751
vn -0.7575 -0.3215 -0.5681
vn -0.0435 -0.8169 0.5751
vn -0.0753 -0.0449 0.9962
vn -0.7997 -0.0270 -0.5998
vn -0.2473 0.5140 -0.8213
vn -0.2561 -0.9605 0.1093
vn -0.5247 0.8407 0.1336
vn -0.2561 -0.9605 -0.1093
vn -0.5247 0.8407 -0.1336
vn -0.6904 -0.7094 0.1419
vn -0.2654 0.7659 -0.5857
vn -0.2473 0.5140 0.8213
vn 0.7575 -0.3215 0.5681
vn 0.0435 -0.8169 -0.5751
vn 0.0753 -0.0449 -0.9962
vn 0.7997 -0.0270 0.5998
vn 0.2473 -0.5140 -0.8213
vn 0.2561 0.9605 0.1093
vn 0.5247 -0.8407 0.1336
vn 0.2561 0.9605 -0.1093
vn 0.5247 -0.8407 -0.1336
vn 0.6904 -0.7094 -0.1419
vn 0.2654 0.7659 0.5857
vn 0.2473 -0.5140 0.8213
vt 0.577824 0.042376
vt 0.310816 0.595664
vt 0.310816 0.319020
vt 0.577824 0.319020
vt 0.577824 0.595664
vt 0.310816 0.042376
vt 0.577824 0.319020
vt 0.310816 0.319020
vt 0.310816 0.035861
vt 0.043808 0.602179
vt 0.310816 0.312505
vt 0.043808 0.325535
vt 0.310816 0.602179
vt 0.043808 0.035861
vt 0.043808 0.312505
vt 0.310816 0.325535
vt 0.177312 0.039118
vt 0.444320 0.598922
vt 0.177312 0.315763
vt 0.444320 0.322277
vt 0.444320 0.039118
vt 0.177312 0.598922
vt 0.444320 0.315763
vt 0.177312 0.322277
vt 0.310816 0.457342
vt 0.577824 0.180698
vt 0.577824 0.457342
vt 0.310816 0.180698
vt 0.043808 0.174183
vt 0.310816 0.463857
vt 0.310816 0.174183
vt 0.043808 0.463857
vt 0.853331 0.335236
vt 0.831082 0.707041
vt 0.847939 0.521139
vt 0.837832 0.721234
vt 0.952039 0.335236
vt 0.960696 0.571442
vt 0.847939 0.707041
vt 0.880955 0.153946
vt 0.469692 0.852331
vt 0.249223 0.807257
vt 0.233107 0.843171
vt 0.374291 0.778125
vt 0.469692 0.778394
vt 0.453395 0.784315
vt 0.520135 0.777915
vt 0.204767 0.853967
vt 0.520135 0.851851
vt 0.171043 0.812711
vt 0.302980 0.778593
vt 0.164990 0.742089
vt 0.382084 0.783848
vt 0.250298 0.735953
vt 0.187905 0.833339
vt 0.520135 0.814883
vt 0.241165 0.825214
vt 0.469692 0.815362
vt 0.300454 0.812960
vt 0.522492 0.125216
vt 0.204477 0.810109
vt 0.498015 0.871963
vt 0.374214 0.223583
vt 0.448353 0.252356
vt 0.204767 0.733038
vt 0.300454 0.826363
vt 0.448353 0.096443
vt 0.298088 0.733833
vt 0.379557 0.829402
vt 0.374214 0.172591
vt 0.498015 0.820971
vt 0.278224 0.862498
vt 0.522492 0.227200
vt 0.379557 0.829402
vt 0.498015 0.769979
vt 0.458661 0.826363
vt 0.374214 0.121598
vt 0.522492 0.176208
vt 0.289339 0.837729
vt 0.379557 0.736077
vt 0.514425 0.404757
vt 0.491812 0.770458
vt 0.166712 0.879334
vt 0.458661 0.733038
vt 0.366148 0.510359
vt 0.514425 0.455749
vt 0.491812 0.821450
vt 0.491812 0.872442
vt 0.207132 0.812165
vt 0.514425 0.506741
vt 0.120195 0.822427
vt 0.366148 0.408375
vt 0.120485 0.745356
vt 0.440287 0.379602
vt 0.300454 0.733038
vt 0.204767 0.733038
vt 0.440287 0.535515
vt 0.379557 0.736077
vt 0.366148 0.459367
vt 0.143454 0.850881
vt 0.577824 0.261802
vt 0.310816 0.376238
vt 0.577824 0.376238
vt 0.310816 0.261802
vt 0.310816 0.382753
vt 0.043808 0.255287
vt 0.310816 0.255287
vt 0.043808 0.382753
vt 0.171531 0.375137
vt 0.853331 0.153885
vt 0.855675 0.851088
vt 0.183093 0.254186
vt 0.847939 0.481796
vt 0.931863 0.674287
vt 0.520135 0.833259
vt 0.179523 0.823085
vt 0.469692 0.796987
vt 0.237160 0.834140
vt 0.522492 0.201704
vt 0.283781 0.850113
vt 0.498015 0.846467
vt 0.374214 0.198087
vt 0.366148 0.433871
vt 0.131824 0.836654
vt 0.491812 0.795954
vt 0.514425 0.430253
vt 0.577824 0.538446
vt 0.310816 0.099594
vt 0.310816 0.544961
vt 0.043808 0.093079
vt 0.310816 0.093079
vt 0.043808 0.544961
vt 0.743839 0.374579
vt 0.171531 0.537345
vt 0.866665 0.824079
vt 0.743839 0.560482
vt 0.183093 0.091978
vt 0.856362 0.297993
vt 0.577824 0.099594
vt 0.310816 0.538446
vt 0.469692 0.833738
vt 0.245171 0.816288
vt 0.520135 0.796507
vt 0.196287 0.843593
vt 0.522492 0.150712
vt 0.294896 0.825344
vt 0.498015 0.795475
vt 0.374214 0.147095
vt 0.366148 0.484863
vt 0.155083 0.865107
vt 0.491812 0.846946
vt 0.514425 0.481245
vt 0.363752 0.324243
vt 0.096744 0.313797
vt 0.096744 0.600887
vt 0.363752 0.037153
vt 0.096744 0.037153
vt 0.363752 0.600887
vt 0.096744 0.324243
vt 0.363752 0.313797
vt 0.847939 0.335236
vt 0.743839 0.188686
vt 0.091682 0.458748
vt 0.101806 0.171658
vt 0.850577 0.591759
vt 0.968198 0.297993
vt 0.167472 0.780082
vt 0.420592 0.783701
vt 0.202816 0.780472
vt 0.400647 0.237710
vt 0.428571 0.826619
vt 0.400647 0.108761
vt 0.392581 0.523197
vt 0.428571 0.733294
vt 0.392581 0.394248
vt 0.118534 0.792790
vt 0.784066 0.147189
vt 0.091423 0.377448
vt 0.850837 0.672667
vt 0.102066 0.252566
vt 0.926905 0.283472
vt 0.102066 0.090358
vt 0.805314 0.335795
vt 0.091423 0.539656
vt 0.257879 0.041084
vt 0.524887 0.596956
vt 0.524887 0.317728
vt 0.257879 0.320312
vt 0.524887 0.320312
vt 0.257879 0.317728
vt 0.257879 0.596956
vt 0.524887 0.041084
vt 0.847939 0.521138
vt 0.952039 0.521138
vt 0.262941 0.175589
vt 0.252817 0.454817
vt 0.743839 0.851088
vt 0.947951 0.741551
vt 0.250117 0.774460
vt 0.341488 0.778740
vt 0.300454 0.782869
vt 0.496059 0.111089
vt 0.349468 0.829146
vt 0.496058 0.240038
vt 0.487992 0.391920
vt 0.349468 0.735821
vt 0.487992 0.520869
vt 0.207132 0.782074
vt 0.909414 0.520580
vt 0.263201 0.256498
vt 0.785132 0.836567
vt 0.252557 0.373517
vt 0.947691 0.822459
vt 0.252557 0.535725
vt 0.805314 0.521697
vt 0.263201 0.094290
s 0
usemtl マテリアル.001
f 35/81/1 44/103/1 54/126/1
f 80/180/2 8/15/2 45/106/2
f 28/63/3 46/107/3 52/122/3
f 96/212/4 2/3/4 43/102/4
f 33/77/5 68/156/5 76/172/5
f 32/73/6 84/187/6 92/204/6
f 75/170/7 12/23/7 70/160/7
f 91/202/8 11/21/8 86/192/8
f 79/178/9 12/24/9 47/109/9
f 95/210/10 10/19/10 48/112/10
f 87/193/11 59/136/11 98/215/11
f 71/161/12 58/133/12 82/183/12
f 88/196/13 60/140/13 97/214/13
f 64/148/3 16/31/3 57/131/3
f 72/164/14 56/130/14 81/182/14
f 66/152/1 14/27/1 55/127/1
f 34/79/15 61/142/15 63/146/15
f 42/100/16 62/144/16 65/150/16
f 41/96/17 89/199/17 94/208/17
f 40/93/18 73/167/18 78/176/18
f 93/206/19 20/44/19 90/200/19
f 77/174/20 21/46/20 74/168/20
f 53/124/16 22/50/16 49/116/16
f 51/120/15 20/43/15 50/118/15
f 43/101/21 32/73/21 51/119/21
f 13/26/21 63/145/21 60/139/21
f 62/143/22 31/71/22 64/147/22
f 89/199/23 30/68/23 91/201/23
f 73/167/24 29/65/24 75/169/24
f 20/44/25 92/203/25 90/200/25
f 21/46/26 76/171/26 74/168/26
f 22/49/22 52/121/22 49/115/22
f 45/105/27 39/92/27 53/123/27
f 69/158/28 36/85/28 77/173/28
f 85/189/29 35/81/29 93/205/29
f 10/20/30 78/175/30 67/153/30
f 9/18/31 94/207/31 83/186/31
f 15/30/27 65/149/27 56/129/27
f 61/141/32 37/87/32 66/151/32
f 20/45/32 54/125/32 50/117/32
f 50/117/32 37/87/32 26/58/32
f 15/30/27 53/123/27 42/99/27
f 49/115/22 31/71/22 25/56/22
f 13/26/21 51/119/21 34/78/21
f 34/79/15 50/118/15 26/57/15
f 42/100/16 49/116/16 25/55/16
f 87/194/33 48/113/33 18/37/33
f 71/162/34 47/110/34 17/33/34
f 88/196/35 43/102/35 13/25/35
f 52/122/3 16/31/3 31/70/3
f 72/164/36 45/106/36 15/29/36
f 54/126/1 14/27/1 37/86/1
f 19/41/32 66/151/32 38/88/32
f 56/129/37 36/85/37 7/13/37
f 21/47/22 64/147/22 33/75/22
f 60/139/38 27/60/38 1/1/38
f 65/150/16 21/48/16 36/83/16
f 63/146/15 19/42/15 27/59/15
f 38/90/39 55/127/39 3/5/39
f 81/182/40 7/14/40 69/157/40
f 33/77/41 57/131/41 5/9/41
f 97/214/42 1/2/42 86/191/42
f 82/184/43 11/22/43 68/155/43
f 98/216/44 9/17/44 83/185/44
f 5/10/45 82/184/45 68/155/45
f 9/17/44 81/182/44 69/157/44
f 48/114/46 72/165/46 18/38/46
f 46/108/47 71/163/47 16/32/47
f 67/153/48 39/92/48 8/16/48
f 9/18/49 77/173/49 41/97/49
f 74/168/50 30/69/50 24/53/50
f 22/50/51 75/169/51 28/61/51
f 41/98/52 74/168/52 24/53/52
f 78/176/53 22/50/53 39/91/53
f 59/138/54 72/166/54 81/181/54
f 57/132/55 71/163/55 82/184/55
f 6/12/56 79/178/56 46/108/56
f 28/63/57 70/160/57 6/11/57
f 76/172/58 11/21/58 30/67/58
f 10/19/59 80/180/59 48/112/59
f 3/6/60 98/216/60 83/185/60
f 11/22/43 97/214/43 86/191/43
f 47/111/61 88/197/61 17/34/61
f 44/104/62 87/195/62 14/28/62
f 83/186/63 38/90/63 3/5/63
f 10/20/64 93/205/64 40/94/64
f 90/200/65 29/66/65 23/51/65
f 19/42/66 91/201/66 27/59/66
f 40/95/67 90/200/67 23/51/67
f 94/208/68 19/42/68 38/89/68
f 58/135/69 88/198/69 97/213/69
f 55/128/70 87/195/70 98/216/70
f 4/8/71 95/210/71 44/104/71
f 27/60/72 86/192/72 1/1/72
f 92/204/73 12/23/73 29/64/73
f 12/24/74 96/212/74 47/109/74
f 35/81/75 4/7/75 44/103/75
f 80/180/76 67/154/76 8/15/76
f 28/63/77 6/11/77 46/107/77
f 96/212/78 84/188/78 2/3/78
f 33/77/79 5/9/79 68/156/79
f 32/73/80 2/4/80 84/187/80
f 75/170/81 29/64/81 12/23/81
f 91/202/82 30/67/82 11/21/82
f 79/178/83 70/159/83 12/24/83
f 95/210/84 85/190/84 10/19/84
f 87/193/85 18/39/85 59/136/85
f 71/161/86 17/35/86 58/133/86
f 88/196/35 13/25/35 60/140/35
f 64/148/3 31/70/3 16/31/3
f 72/164/36 15/29/36 56/130/36
f 66/152/1 37/86/1 14/27/1
f 34/79/15 26/57/15 61/142/15
f 42/100/16 25/55/16 62/144/16
f 41/96/87 24/54/87 89/199/87
f 40/93/88 23/52/88 73/167/88
f 93/206/89 35/80/89 20/44/89
f 77/174/90 36/84/90 21/46/90
f 53/124/16 39/91/16 22/50/16
f 51/120/15 32/72/15 20/43/15
f 43/101/91 2/4/91 32/73/91
f 13/26/21 34/78/21 63/145/21
f 62/143/22 25/56/22 31/71/22
f 89/199/92 24/54/92 30/68/92
f 73/167/93 23/52/93 29/65/93
f 20/44/94 32/74/94 92/203/94
f 21/46/95 33/76/95 76/171/95
f 22/49/22 28/62/22 52/121/22
f 45/105/96 8/16/96 39/92/96
f 69/158/97 7/13/97 36/85/97
f 85/189/98 4/7/98 35/81/98
f 10/20/99 40/94/99 78/175/99
f 9/18/100 41/97/100 94/207/100
f 15/30/27 42/99/27 65/149/27
f 61/141/32 26/58/32 37/87/32
f 20/45/32 35/82/32 54/125/32
f 50/117/32 54/125/32 37/87/32
f 15/30/27 45/105/27 53/123/27
f 49/115/22 52/121/22 31/71/22
f 13/26/21 43/101/21 51/119/21
f 34/79/15 51/120/15 50/118/15
f 42/100/16 53/124/16 49/116/16
f 87/194/101 95/209/101 48/113/101
f 71/162/102 79/177/102 47/110/102
f 88/196/103 96/212/103 43/102/103
f 52/122/3 46/107/3 16/31/3
f 72/164/104 80/180/104 45/106/104
f 54/126/1 44/103/1 14/27/1
f 19/41/32 61/141/32 66/151/32
f 56/129/27 65/149/27 36/85/27
f 21/47/22 62/143/22 64/147/22
f 60/139/21 63/145/21 27/60/21
f 65/150/16 62/144/16 21/48/16
f 63/146/15 61/142/15 19/42/15
f 38/90/1 66/152/1 55/127/1
f 81/182/105 56/130/105 7/14/105
f 33/77/3 64/148/3 57/131/3
f 97/214/106 60/140/106 1/2/106
f 82/184/107 58/134/107 11/22/107
f 98/216/108 59/137/108 9/17/108
f 5/10/109 57/132/109 82/184/109
f 9/17/110 59/137/110 81/182/110
f 48/114/111 80/179/111 72/165/111
f 46/108/112 79/178/112 71/163/112
f 67/153/113 78/175/113 39/92/113
f 9/18/31 69/158/31 77/173/31
f 74/168/114 76/171/114 30/69/114
f 22/50/115 73/167/115 75/169/115
f 41/98/116 77/174/116 74/168/116
f 78/176/117 73/167/117 22/50/117
f 59/138/118 18/40/118 72/166/118
f 57/132/47 16/32/47 71/163/47
f 6/12/119 70/159/119 79/178/119
f 28/63/120 75/170/120 70/160/120
f 76/172/8 68/156/8 11/21/8
f 10/19/84 67/154/84 80/180/84
f 3/6/121 55/128/121 98/216/121
f 11/22/122 58/134/122 97/214/122
f 47/111/123 96/211/123 88/197/123
f 44/104/124 95/210/124 87/195/124
f 83/186/125 94/207/125 38/90/125
f 10/20/30 85/189/30 93/205/30
f 90/200/126 92/203/126 29/66/126
f 19/42/127 89/199/127 91/201/127
f 40/95/128 93/206/128 90/200/128
f 94/208/129 89/199/129 19/42/129
f 58/135/130 17/36/130 88/198/130
f 55/128/62 14/28/62 87/195/62
f 4/8/131 85/190/131 95/210/131
f 27/60/132 91/202/132 86/192/132
f 92/204/7 84/187/7 12/23/7
f 12/24/83 84/188/83 96/212/83
