# Blender 3.5.0
# www.blender.org
mtllib needle_L_arm.mtl
o LArm
v -0.210227 -0.217710 0.300845
v -0.210227 0.217710 0.300845
v -0.210227 -0.217710 -0.300845
v -0.210227 0.217710 -0.300845
v 0.210227 -0.217710 0.300845
v 0.210227 0.217710 0.300845
v 0.210227 -0.217710 -0.300845
v 0.210227 0.217710 -0.300845
v 0.000000 -0.235886 -0.300845
v 0.000000 0.235886 -0.300845
v -0.000000 -0.235886 0.300845
v -0.000000 0.235886 0.300845
v -0.241342 0.000000 0.300845
v -0.241342 0.000000 -0.300845
v 0.241342 0.000000 -0.300845
v 0.241342 0.000000 0.300845
v -0.000000 0.000000 1.130777
v 0.000000 0.000000 -1.130777
v -0.109428 -0.063043 -0.000000
v -0.109428 0.063043 -0.000000
v 0.109428 -0.063043 0.000000
v 0.109428 0.063043 0.000000
v 0.000000 0.124106 0.000000
v 0.000000 -0.124106 0.000000
v 0.109428 0.000000 0.000000
v -0.109428 0.000000 -0.000000
v -0.134024 -0.086959 0.204143
v 0.134024 0.086959 0.204143
v -0.000000 0.132943 0.204143
v -0.000000 -0.132943 0.204143
v 0.134024 0.000000 0.204143
v -0.134024 0.086959 0.204143
v 0.134024 -0.086959 0.204143
v -0.134024 0.000000 0.204143
v -0.134024 0.086959 -0.204143
v 0.134024 -0.086959 -0.204143
v -0.134024 0.000000 -0.204143
v -0.134024 -0.086959 -0.204143
v 0.134024 0.086959 -0.204143
v 0.000000 0.132943 -0.204143
v 0.000000 -0.132943 -0.204143
v 0.134024 0.000000 -0.204143
v -0.241342 0.138310 0.300845
v -0.241342 0.138310 -0.300845
v 0.241342 0.138310 -0.300845
v 0.241342 0.138310 0.300845
v -0.000000 0.138310 0.439449
v 0.000000 0.138310 -0.439449
v 0.109428 0.031337 0.000000
v -0.109428 0.031337 -0.000000
v -0.134024 0.043479 0.204143
v 0.134024 0.043479 0.204143
v 0.134024 0.043479 -0.204143
v -0.134024 0.043479 -0.204143
v -0.241342 -0.138310 -0.300845
v 0.241342 -0.138310 -0.300845
v 0.241342 -0.138310 0.300845
v -0.000000 -0.138310 0.439449
v 0.000000 -0.138310 -0.439449
v -0.241342 -0.138310 0.300845
v -0.109428 -0.031337 -0.000000
v 0.109428 -0.031337 0.000000
v -0.134024 -0.043479 0.204143
v 0.134024 -0.043479 0.204143
v 0.134024 -0.043479 -0.204143
v -0.134024 -0.043479 -0.204143
v 0.145646 0.235886 -0.300845
v 0.145646 -0.235886 0.300845
v 0.145646 -0.235886 -0.300845
v 0.145646 0.235886 0.300845
v 0.145646 0.000000 0.422215
v 0.145646 0.000000 -0.422215
v 0.060511 0.093575 0.000000
v 0.060511 -0.093575 0.000000
v 0.086240 0.109951 0.204143
v 0.086240 -0.109951 0.204143
v 0.086240 -0.109951 -0.204143
v 0.086240 0.109951 -0.204143
v 0.145646 0.138310 0.428444
v 0.145646 0.138310 -0.428444
v 0.145646 -0.138310 -0.428444
v 0.145646 -0.138310 0.428444
v -0.145646 -0.235886 -0.300845
v -0.145646 0.235886 0.300845
v -0.145646 0.235886 -0.300845
v -0.145646 -0.235886 0.300845
v -0.145646 0.000000 -0.422215
v -0.145646 0.000000 0.422215
v -0.060511 -0.093575 -0.000000
v -0.060511 0.093575 -0.000000
v -0.086240 -0.109951 0.204143
v -0.086240 0.109951 0.204143
v -0.086240 0.109951 -0.204143
v -0.086240 -0.109951 -0.204143
v -0.145646 0.138310 -0.428444
v -0.145646 0.138310 0.428444
v -0.145646 -0.138310 0.428444
v -0.145646 -0.138310 -0.428444
vn -0.6694 -0.0000 0.7429
vn 0.7634 0.2991 -0.5725
vn 0.6694 -0.0000 -0.7429
vn -0.7634 0.2991 0.5725
vn 0.2473 -0.5140 -0.8213
vn -0.2473 0.5140 -0.8213
vn -0.0000 0.6090 -0.7931
vn -0.0000 -0.6090 -0.7931
vn 0.0435 0.8169 0.5751
vn -0.0435 0.8169 -0.5751
vn -0.0753 0.0449 -0.9962
vn 0.0753 0.0449 0.9962
vn -0.7997 0.0270 0.5998
vn 0.7997 0.0270 -0.5998
vn -0.9928 -0.0000 -0.1196
vn 0.9928 -0.0000 0.1196
vn -0.2561 -0.9605 0.1093
vn 0.2561 0.9605 0.1093
vn -0.5247 0.8407 0.1336
vn 0.5247 -0.8407 0.1336
vn -0.6694 -0.0000 -0.7429
vn 0.9928 -0.0000 -0.1196
vn -0.2561 -0.9605 -0.1093
vn 0.2561 0.9605 -0.1093
vn -0.5247 0.8407 -0.1336
vn 0.5247 -0.8407 -0.1336
vn 0.6694 -0.0000 0.7429
vn 0.2473 -0.5140 0.8213
vn -0.2473 0.5140 0.8213
vn -0.0000 0.6090 0.7931
vn -0.0000 -0.6090 0.7931
vn -0.9928 -0.0000 0.1196
vn -0.6904 0.7094 -0.1419
vn 0.6904 0.7094 0.1419
vn -0.7853 -0.0000 0.6192
vn 0.7853 -0.0000 -0.6192
vn 0.5882 -0.2305 0.7752
vn -0.5882 -0.2305 -0.7752
vn -0.5882 -0.2305 0.7752
vn 0.2182 -0.7752 -0.5928
vn 0.5882 -0.2305 -0.7752
vn -0.2182 -0.7752 0.5928
vn -0.0000 -0.7944 0.6075
vn -0.0000 -0.7944 -0.6075
vn 0.2182 -0.7752 0.5928
vn 0.6904 0.7094 -0.1419
vn 0.7853 -0.0000 0.6192
vn 0.1492 0.5303 0.8346
vn 0.1796 -0.6735 0.7170
vn 0.4501 -0.8921 -0.0386
vn 0.4283 0.8901 -0.1559
vn 0.4501 -0.8921 0.0386
vn 0.4283 0.8901 0.1559
vn 0.0753 0.0449 -0.9962
vn 0.7997 0.0270 0.5998
vn 0.7634 0.2991 0.5725
vn 0.1492 0.5303 -0.8346
vn 0.1796 -0.6735 -0.7170
vn 0.0435 0.8169 -0.5751
vn -0.2182 -0.7752 -0.5928
vn -0.6904 0.7094 0.1419
vn -0.7853 -0.0000 -0.6192
vn -0.1492 -0.5303 0.8346
vn -0.1796 0.6735 0.7170
vn -0.4501 0.8921 -0.0386
vn -0.4283 -0.8901 -0.1559
vn -0.4501 0.8921 0.0386
vn -0.4283 -0.8901 0.1559
vn -0.0753 0.0449 0.9962
vn -0.7997 0.0270 -0.5998
vn -0.7634 0.2991 -0.5725
vn -0.1492 -0.5303 -0.8346
vn -0.1796 0.6735 -0.7170
vn -0.0435 0.8169 0.5751
vn -0.5882 0.2305 0.7752
vn 0.2182 0.7752 -0.5928
vn 0.5882 0.2305 -0.7752
vn -0.2182 0.7752 0.5928
vn 0.1492 -0.5303 -0.8346
vn -0.1492 0.5303 -0.8346
vn 0.1796 0.6735 -0.7170
vn -0.1796 -0.6735 -0.7170
vn -0.0000 0.7944 0.6075
vn -0.0000 0.7944 -0.6075
vn -0.6904 -0.7094 -0.1419
vn 0.6904 -0.7094 0.1419
vn -0.4501 -0.8921 0.0386
vn 0.4501 0.8921 0.0386
vn -0.4283 0.8901 0.1559
vn 0.4283 -0.8901 0.1559
vn -0.5882 0.2305 -0.7752
vn -0.4501 -0.8921 -0.0386
vn 0.4501 0.8921 -0.0386
vn -0.4283 0.8901 -0.1559
vn 0.4283 -0.8901 -0.1559
vn 0.5882 0.2305 0.7752
vn 0.1492 -0.5303 0.8346
vn -0.1492 0.5303 0.8346
vn 0.1796 0.6735 0.7170
vn -0.1796 -0.6735 0.7170
vn -0.0753 -0.0449 -0.9962
vn 0.0753 -0.0449 0.9962
vn -0.7997 -0.0270 0.5998
vn 0.7997 -0.0270 -0.5998
vn 0.7634 -0.2991 -0.5725
vn -0.7634 -0.2991 0.5725
vn 0.0435 -0.8169 0.5751
vn -0.0435 -0.8169 -0.5751
vn 0.7634 -0.2991 0.5725
vn 0.0435 -0.8169 -0.5751
vn 0.0753 -0.0449 -0.9962
vn 0.7997 -0.0270 0.5998
vn 0.2473 0.5140 0.8213
vn 0.2561 -0.9605 -0.1093
vn 0.5247 0.8407 -0.1336
vn 0.2561 -0.9605 0.1093
vn 0.5247 0.8407 0.1336
vn 0.6904 -0.7094 -0.1419
vn 0.2182 0.7752 0.5928
vn 0.2473 0.5140 -0.8213
vn -0.7634 -0.2991 -0.5725
vn -0.0435 -0.8169 0.5751
vn -0.0753 -0.0449 0.9962
vn -0.7997 -0.0270 -0.5998
vn -0.2473 -0.5140 0.8213
vn -0.2561 0.9605 -0.1093
vn -0.5247 -0.8407 -0.1336
vn -0.2561 0.9605 0.1093
vn -0.5247 -0.8407 0.1336
vn -0.6904 -0.7094 0.1419
vn -0.2182 0.7752 -0.5928
vn -0.2473 -0.5140 -0.8213
vt 0.508049 0.134779
vt 0.274331 0.515837
vt 0.274331 0.314149
vt 0.508049 0.336467
vt 0.508049 0.538154
vt 0.274331 0.112461
vt 0.508049 0.336467
vt 0.274331 0.314149
vt 0.313387 0.130029
vt 0.079669 0.520586
vt 0.313387 0.331717
vt 0.079669 0.318899
vt 0.313387 0.542904
vt 0.079669 0.107712
vt 0.079669 0.309399
vt 0.313387 0.341216
vt 0.177000 0.110087
vt 0.410718 0.540529
vt 0.177000 0.311774
vt 0.410718 0.338841
vt 0.410718 0.132404
vt 0.177000 0.518211
vt 0.410718 0.334092
vt 0.177000 0.316524
vt 0.274331 0.414993
vt 0.508049 0.235623
vt 0.508049 0.437311
vt 0.274331 0.213305
vt 0.079669 0.208556
vt 0.313387 0.442060
vt 0.313387 0.230873
vt 0.079669 0.419742
vt 0.855941 0.388370
vt 0.833228 0.767924
vt 0.850436 0.578147
vt 0.833175 0.058429
vt 0.956706 0.388370
vt 0.976111 0.218587
vt 0.850436 0.767924
vt 0.873268 0.653627
vt 0.625616 0.885083
vt 0.106756 0.850290
vt 0.090304 0.886953
vt 0.570368 0.843989
vt 0.625616 0.809605
vt 0.455808 0.889371
vt 0.351863 0.780310
vt 0.287936 0.888209
vt 0.351863 0.855788
vt 0.253509 0.846092
vt 0.497571 0.844466
vt 0.247329 0.773998
vt 0.383011 0.888893
vt 0.107854 0.777500
vt 0.270722 0.867151
vt 0.351863 0.818049
vt 0.098530 0.868622
vt 0.625616 0.847344
vt 0.159054 0.856112
vt 0.467710 0.195174
vt 0.287640 0.843436
vt 0.329282 0.876319
vt 0.359608 0.266888
vt 0.413659 0.287865
vt 0.287936 0.764759
vt 0.494992 0.893232
vt 0.413659 0.174196
vt 0.156640 0.775336
vt 0.380432 0.935397
vt 0.359608 0.229712
vt 0.329282 0.824264
vt 0.136361 0.906683
vt 0.467710 0.269526
vt 0.575744 0.896335
vt 0.329282 0.772209
vt 0.461184 0.932295
vt 0.359608 0.192536
vt 0.467710 0.232350
vt 0.147708 0.881397
vt 0.575744 0.801065
vt 0.461829 0.398974
vt 0.648197 0.801504
vt 0.249088 0.914104
vt 0.461184 0.837025
vt 0.353727 0.475963
vt 0.461829 0.436149
vt 0.648197 0.853559
vt 0.648197 0.905614
vt 0.063788 0.855301
vt 0.461829 0.473325
vt 0.201601 0.856011
vt 0.353727 0.401611
vt 0.201897 0.777334
vt 0.407778 0.380634
vt 0.494992 0.797962
vt 0.061374 0.774525
vt 0.407778 0.494303
vt 0.380432 0.840127
vt 0.353727 0.438787
vt 0.225345 0.885058
vt 0.508049 0.294752
vt 0.274331 0.355864
vt 0.508049 0.378182
vt 0.274331 0.272434
vt 0.313387 0.382931
vt 0.079669 0.267685
vt 0.313387 0.290002
vt 0.079669 0.360613
vt 0.172786 0.355061
vt 0.855941 0.203238
vt 0.858333 0.914973
vt 0.181214 0.266882
vt 0.850436 0.537984
vt 0.946677 0.323575
vt 0.351863 0.836808
vt 0.262166 0.856683
vt 0.625616 0.828586
vt 0.094441 0.877734
vt 0.467710 0.250938
vt 0.142035 0.894040
vt 0.329282 0.850291
vt 0.359608 0.248300
vt 0.353727 0.420199
vt 0.213473 0.870535
vt 0.648197 0.827532
vt 0.461829 0.417562
vt 0.508049 0.496439
vt 0.274331 0.154176
vt 0.313387 0.501189
vt 0.079669 0.149427
vt 0.313387 0.171744
vt 0.079669 0.478871
vt 0.744167 0.428533
vt 0.172786 0.473319
vt 0.862609 0.163417
vt 0.744167 0.618310
vt 0.181214 0.148624
vt 0.844274 0.823453
vt 0.508049 0.176494
vt 0.274331 0.474122
vt 0.625616 0.866103
vt 0.102619 0.859510
vt 0.351863 0.799290
vt 0.279279 0.877618
vt 0.467710 0.213762
vt 0.153381 0.868755
vt 0.329282 0.798236
vt 0.359608 0.211124
vt 0.353727 0.457375
vt 0.237216 0.899581
vt 0.648197 0.879586
vt 0.461829 0.454737
vt 0.351981 0.340275
vt 0.118262 0.310341
vt 0.118262 0.519645
vt 0.351981 0.130971
vt 0.118262 0.108653
vt 0.351981 0.541962
vt 0.118262 0.317957
vt 0.351981 0.332659
vt 0.850436 0.388370
vt 0.744167 0.238765
vt 0.114572 0.416018
vt 0.121953 0.206715
vt 0.863696 0.239327
vt 0.976124 0.823453
vt 0.249863 0.812784
vt 0.422322 0.888743
vt 0.285944 0.813182
vt 0.378879 0.277187
vt 0.430468 0.932557
vt 0.378879 0.183177
vt 0.372998 0.485322
vt 0.430468 0.837286
vt 0.372998 0.391312
vt 0.199905 0.825756
vt 0.785232 0.196403
vt 0.114382 0.356746
vt 0.863962 0.321922
vt 0.122142 0.265701
vt 0.927441 0.806334
vt 0.122142 0.147443
vt 0.806923 0.388940
vt 0.114382 0.475004
vt 0.235738 0.111520
vt 0.469456 0.539096
vt 0.469456 0.335525
vt 0.235738 0.315091
vt 0.469456 0.337408
vt 0.235738 0.313207
vt 0.235738 0.516778
vt 0.469456 0.133837
vt 0.850436 0.578147
vt 0.956706 0.578147
vt 0.239428 0.209581
vt 0.232047 0.413152
vt 0.744167 0.914973
vt 0.945589 0.079170
vt 0.107669 0.816810
vt 0.536882 0.844616
vt 0.159054 0.825394
vt 0.448439 0.184874
vt 0.545028 0.896073
vt 0.448439 0.278885
vt 0.442558 0.389614
vt 0.545028 0.800803
vt 0.442558 0.483625
vt 0.063788 0.824583
vt 0.913192 0.577577
vt 0.239618 0.268567
vt 0.786320 0.900150
vt 0.231858 0.353880
vt 0.945324 0.161764
vt 0.231858 0.472138
vt 0.806923 0.578717
vt 0.239618 0.150309
s 0
usemtl マテリアル
f 35/81/1 44/103/1 54/126/1
f 80/180/2 8/15/2 45/106/2
f 28/63/3 46/107/3 52/122/3
f 96/212/4 2/3/4 43/102/4
f 33/77/5 68/156/5 76/172/5
f 32/73/6 84/187/6 92/204/6
f 75/170/7 12/23/7 70/160/7
f 91/202/8 11/21/8 86/192/8
f 79/178/9 12/24/9 47/109/9
f 95/210/10 10/19/10 48/112/10
f 87/193/11 59/136/11 98/215/11
f 71/161/12 58/133/12 82/183/12
f 88/196/13 60/140/13 97/214/13
f 64/148/3 16/31/3 57/131/3
f 72/164/14 56/130/14 81/182/14
f 66/152/1 14/27/1 55/127/1
f 34/79/15 61/142/15 63/146/15
f 42/100/16 62/144/16 65/150/16
f 41/96/17 89/199/17 94/208/17
f 40/93/18 73/167/18 78/176/18
f 93/206/19 20/44/19 90/200/19
f 77/174/20 21/46/20 74/168/20
f 53/124/16 22/50/16 49/116/16
f 51/120/15 20/43/15 50/118/15
f 43/101/21 32/73/21 51/119/21
f 13/26/21 63/145/21 60/139/21
f 62/143/22 31/71/22 64/147/22
f 89/199/23 30/68/23 91/201/23
f 73/167/24 29/65/24 75/169/24
f 20/44/25 92/203/25 90/200/25
f 21/46/26 76/171/26 74/168/26
f 22/49/22 52/121/22 49/115/22
f 45/105/27 39/92/27 53/123/27
f 69/158/28 36/85/28 77/173/28
f 85/189/29 35/81/29 93/205/29
f 10/20/30 78/175/30 67/153/30
f 9/18/31 94/207/31 83/186/31
f 15/30/27 65/149/27 56/129/27
f 61/141/32 37/87/32 66/151/32
f 20/45/32 54/125/32 50/117/32
f 50/117/32 37/87/32 26/58/32
f 15/30/27 53/123/27 42/99/27
f 49/115/22 31/71/22 25/56/22
f 13/26/21 51/119/21 34/78/21
f 34/79/15 50/118/15 26/57/15
f 42/100/16 49/116/16 25/55/16
f 87/194/33 48/113/33 18/37/33
f 71/162/34 47/110/34 17/33/34
f 88/196/35 43/102/35 13/25/35
f 52/122/3 16/31/3 31/70/3
f 72/164/36 45/106/36 15/29/36
f 54/126/1 14/27/1 37/86/1
f 19/41/32 66/151/32 38/88/32
f 56/129/37 36/85/37 7/13/37
f 21/47/22 64/147/22 33/75/22
f 60/139/38 27/60/38 1/1/38
f 65/150/16 21/48/16 36/83/16
f 63/146/15 19/42/15 27/59/15
f 38/90/39 55/127/39 3/5/39
f 81/182/40 7/14/40 69/157/40
f 33/77/41 57/131/41 5/9/41
f 97/214/42 1/2/42 86/191/42
f 82/184/43 11/22/43 68/155/43
f 98/216/44 9/17/44 83/185/44
f 5/10/45 82/184/45 68/155/45
f 9/17/44 81/182/44 69/157/44
f 48/114/46 72/165/46 18/38/46
f 46/108/47 71/163/47 16/32/47
f 67/153/48 39/92/48 8/16/48
f 9/18/49 77/173/49 41/97/49
f 74/168/50 30/69/50 24/53/50
f 22/50/51 75/169/51 28/61/51
f 41/98/52 74/168/52 24/53/52
f 78/176/53 22/50/53 39/91/53
f 59/138/54 72/166/54 81/181/54
f 57/132/55 71/163/55 82/184/55
f 6/12/56 79/178/56 46/108/56
f 28/63/57 70/160/57 6/11/57
f 76/172/58 11/21/58 30/67/58
f 10/19/59 80/180/59 48/112/59
f 3/6/60 98/216/60 83/185/60
f 11/22/43 97/214/43 86/191/43
f 47/111/61 88/197/61 17/34/61
f 44/104/62 87/195/62 14/28/62
f 83/186/63 38/90/63 3/5/63
f 10/20/64 93/205/64 40/94/64
f 90/200/65 29/66/65 23/51/65
f 19/42/66 91/201/66 27/59/66
f 40/95/67 90/200/67 23/51/67
f 94/208/68 19/42/68 38/89/68
f 58/135/69 88/198/69 97/213/69
f 55/128/70 87/195/70 98/216/70
f 4/8/71 95/210/71 44/104/71
f 27/60/72 86/192/72 1/1/72
f 92/204/73 12/23/73 29/64/73
f 12/24/74 96/212/74 47/109/74
f 35/81/75 4/7/75 44/103/75
f 80/180/76 67/154/76 8/15/76
f 28/63/77 6/11/77 46/107/77
f 96/212/78 84/188/78 2/3/78
f 33/77/79 5/9/79 68/156/79
f 32/73/80 2/4/80 84/187/80
f 75/170/81 29/64/81 12/23/81
f 91/202/82 30/67/82 11/21/82
f 79/178/83 70/159/83 12/24/83
f 95/210/84 85/190/84 10/19/84
f 87/193/85 18/39/85 59/136/85
f 71/161/86 17/35/86 58/133/86
f 88/196/35 13/25/35 60/140/35
f 64/148/3 31/70/3 16/31/3
f 72/164/36 15/29/36 56/130/36
f 66/152/1 37/86/1 14/27/1
f 34/79/15 26/57/15 61/142/15
f 42/100/16 25/55/16 62/144/16
f 41/96/87 24/54/87 89/199/87
f 40/93/88 23/52/88 73/167/88
f 93/206/89 35/80/89 20/44/89
f 77/174/90 36/84/90 21/46/90
f 53/124/16 39/91/16 22/50/16
f 51/120/15 32/72/15 20/43/15
f 43/101/91 2/4/91 32/73/91
f 13/26/21 34/78/21 63/145/21
f 62/143/22 25/56/22 31/71/22
f 89/199/92 24/54/92 30/68/92
f 73/167/93 23/52/93 29/65/93
f 20/44/94 32/74/94 92/203/94
f 21/46/95 33/76/95 76/171/95
f 22/49/22 28/62/22 52/121/22
f 45/105/96 8/16/96 39/92/96
f 69/158/97 7/13/97 36/85/97
f 85/189/98 4/7/98 35/81/98
f 10/20/99 40/94/99 78/175/99
f 9/18/100 41/97/100 94/207/100
f 15/30/27 42/99/27 65/149/27
f 61/141/32 26/58/32 37/87/32
f 20/45/32 35/82/32 54/125/32
f 50/117/32 54/125/32 37/87/32
f 15/30/27 45/105/27 53/123/27
f 49/115/22 52/121/22 31/71/22
f 13/26/21 43/101/21 51/119/21
f 34/79/15 51/120/15 50/118/15
f 42/100/16 53/124/16 49/116/16
f 87/194/101 95/209/101 48/113/101
f 71/162/102 79/177/102 47/110/102
f 88/196/103 96/212/103 43/102/103
f 52/122/3 46/107/3 16/31/3
f 72/164/104 80/180/104 45/106/104
f 54/126/1 44/103/1 14/27/1
f 19/41/32 61/141/32 66/151/32
f 56/129/27 65/149/27 36/85/27
f 21/47/22 62/143/22 64/147/22
f 60/139/21 63/145/21 27/60/21
f 65/150/16 62/144/16 21/48/16
f 63/146/15 61/142/15 19/42/15
f 38/90/1 66/152/1 55/127/1
f 81/182/105 56/130/105 7/14/105
f 33/77/3 64/148/3 57/131/3
f 97/214/106 60/140/106 1/2/106
f 82/184/107 58/134/107 11/22/107
f 98/216/108 59/137/108 9/17/108
f 5/10/109 57/132/109 82/184/109
f 9/17/110 59/137/110 81/182/110
f 48/114/111 80/179/111 72/165/111
f 46/108/112 79/178/112 71/163/112
f 67/153/113 78/175/113 39/92/113
f 9/18/31 69/158/31 77/173/31
f 74/168/114 76/171/114 30/69/114
f 22/50/115 73/167/115 75/169/115
f 41/98/116 77/174/116 74/168/116
f 78/176/117 73/167/117 22/50/117
f 59/138/118 18/40/118 72/166/118
f 57/132/47 16/32/47 71/163/47
f 6/12/119 70/159/119 79/178/119
f 28/63/120 75/170/120 70/160/120
f 76/172/8 68/156/8 11/21/8
f 10/19/84 67/154/84 80/180/84
f 3/6/121 55/128/121 98/216/121
f 11/22/122 58/134/122 97/214/122
f 47/111/123 96/211/123 88/197/123
f 44/104/124 95/210/124 87/195/124
f 83/186/125 94/207/125 38/90/125
f 10/20/30 85/189/30 93/205/30
f 90/200/126 92/203/126 29/66/126
f 19/42/127 89/199/127 91/201/127
f 40/95/128 93/206/128 90/200/128
f 94/208/129 89/199/129 19/42/129
f 58/135/130 17/36/130 88/198/130
f 55/128/62 14/28/62 87/195/62
f 4/8/131 85/190/131 95/210/131
f 27/60/132 91/202/132 86/192/132
f 92/204/7 84/187/7 12/23/7
f 12/24/83 84/188/83 96/212/83
