# Blender 3.3.1
# www.blender.org
mtllib float_Body.mtl
o float_Body
v 0.249200 0.426157 -0.315059
v 0.431306 1.486996 -0.315059
v 0.249200 0.426157 0.315059
v 0.431306 1.486996 0.315059
v -0.249200 0.426157 -0.315059
v -0.431306 1.486996 -0.315059
v -0.249200 0.426157 0.315059
v -0.431306 1.486996 0.315059
vn 0.9856 -0.1692 -0.0000
vn -0.0000 -0.0000 1.0000
vn -0.9856 -0.1692 -0.0000
vn -0.0000 -0.0000 -1.0000
vn -0.0000 -1.0000 -0.0000
vn -0.0000 1.0000 -0.0000
vt 0.694988 0.631969
vt 0.694988 0.919901
vt 0.623005 0.847918
vt 0.766971 0.631969
vt 0.766971 0.919901
vt 0.838954 0.847918
vt 0.623005 0.775935
vt 0.694988 0.703952
vt 0.766971 0.703952
vt 0.838954 0.775935
vt 0.694988 0.847918
vt 0.766971 0.847918
vt 0.694988 0.775935
vt 0.766971 0.775935
s 0
usemtl マテリアル.002
f 2/4/1 3/8/1 1/1/1
f 4/9/2 7/13/2 3/8/2
f 8/14/3 5/11/3 7/13/3
f 6/12/4 1/2/4 5/11/4
f 7/13/5 1/3/5 3/7/5
f 4/10/6 6/12/6 8/14/6
f 2/4/1 4/9/1 3/8/1
f 4/9/2 8/14/2 7/13/2
f 8/14/3 6/12/3 5/11/3
f 6/12/4 2/5/4 1/2/4
f 7/13/5 5/11/5 1/3/5
f 4/10/6 2/6/6 6/12/6
